<svg width="131" height="156" viewBox="0 0 131 156" fill="none" xmlns="http://www.w3.org/2000/svg">
<path d="M15.4434 57.7518L28.5378 67.1757L28.4734 56.3119L15.4434 57.7518Z" fill="#BF9017"/>
<path d="M124.567 32.8363L124.567 126.201C124.567 129.672 121.745 132.488 118.265 132.488H34.8521C31.3723 132.488 28.5498 129.672 28.5498 126.201L28.5498 6.28747C28.5498 2.8162 31.3723 0.000610352 34.8521 0.000610352L89.3565 0.000610352L124.567 32.8363Z" fill="white"/>
<path d="M76.5981 58.0347H16.6163C15.1728 58.0347 14 56.8647 14 55.4248L14 28.9788C14 27.5389 15.1728 26.369 16.6163 26.369L76.5981 26.369C78.0416 26.369 79.2144 27.5389 79.2144 28.9788V55.4248C79.2144 56.8647 78.0416 58.0347 76.5981 58.0347Z" fill="#D8A521"/>
<path d="M26.9261 52.1593C25.6244 52.1593 24.5289 51.9022 23.6396 51.3751C22.7503 50.848 22.0157 50.0766 21.4229 49.0352L23.6783 47.3767C24.0521 48.0452 24.4902 48.5466 24.98 48.8552C25.4698 49.1638 25.9982 49.318 26.5524 49.318C27.4159 49.318 28.0603 49.0609 28.4985 48.5338C28.9367 48.0067 29.1429 47.0939 29.1429 45.7825V33.4402H32.4165V46.0653C32.4165 46.9139 32.3134 47.6981 32.1072 48.4438C31.901 49.1895 31.5659 49.8323 31.1148 50.3851C30.6637 50.938 30.0966 51.3751 29.4007 51.6965C28.7047 51.9922 27.8799 52.1593 26.9261 52.1593Z" fill="white"/>
<path d="M37.0049 51.8117V33.4268H42.8046C43.8228 33.4268 44.7636 33.5168 45.64 33.7097C46.5164 33.9025 47.2639 34.2111 47.9083 34.661C48.5527 35.111 49.0425 35.7024 49.4034 36.4224C49.7642 37.1424 49.9447 38.0423 49.9447 39.1094C49.9447 40.1251 49.7642 40.9993 49.4034 41.7579C49.0425 42.5036 48.5527 43.1335 47.9212 43.6221C47.2897 44.1235 46.5551 44.4835 45.6915 44.7149C44.8409 44.9463 43.913 45.062 42.9206 45.062H40.2656V51.8117H37.0049ZM40.2785 42.4521H42.6757C45.3822 42.4521 46.7355 41.3336 46.7355 39.1094C46.7355 37.9523 46.3875 37.1424 45.6787 36.7052C44.9698 36.2681 43.9388 36.0496 42.5597 36.0496H40.2785V42.4521V42.4521Z" fill="white"/>
<path d="M61.1318 52.1587C59.8945 52.1587 58.7346 51.953 57.6777 51.5416C56.6209 51.1302 55.693 50.5259 54.9197 49.7159C54.1335 48.906 53.5277 47.916 53.1024 46.7332C52.6642 45.5504 52.458 44.2005 52.458 42.6834C52.458 41.1792 52.6771 39.8421 53.1282 38.6464C53.5793 37.4508 54.1979 36.448 54.9712 35.6252C55.7445 34.8023 56.6725 34.1724 57.7293 33.7352C58.7861 33.2981 59.9332 33.0924 61.1576 33.0924C62.4722 33.0924 63.5806 33.3367 64.4956 33.8124C65.4107 34.2881 66.1582 34.828 66.7382 35.4323L64.9854 37.5408C64.5214 37.0908 63.993 36.7051 63.4259 36.3965C62.8588 36.088 62.1371 35.9337 61.2736 35.9337C60.4487 35.9337 59.7012 36.088 59.031 36.3965C58.3608 36.7051 57.7937 37.1422 57.3169 37.7208C56.84 38.2865 56.4662 38.9936 56.2085 39.8164C55.9507 40.6392 55.8089 41.5649 55.8089 42.5934C55.8089 44.689 56.2858 46.3347 57.2267 47.5303C58.1804 48.726 59.5852 49.3174 61.4411 49.3174C61.9695 49.3174 62.4593 49.2531 62.9361 49.1117C63.4001 48.9703 63.7868 48.7646 64.0961 48.5074V44.5476H60.6034V41.8734H67.0346V49.9731C66.416 50.5902 65.5911 51.1173 64.5729 51.5287C63.5419 51.9401 62.3948 52.1587 61.1318 52.1587Z" fill="white"/>
<path d="M124.569 32.8361V33.8132H93.1986C90.8014 33.8132 88.8682 31.8718 88.8682 29.4805V0.000427246L89.3579 0.000427246L124.569 32.8361Z" fill="#E6E7E8"/>
<path d="M106.807 73.463H46.2969V68.2561H106.807H106.82V73.463H106.807Z" fill="#E6E7E8"/>
<path d="M106.807 85.4581H46.2969V80.2512H106.807H106.82V85.4581H106.807Z" fill="#E6E7E8"/>
<path d="M106.807 97.4401H46.2969V92.2461H106.807H106.82V97.4401H106.807Z" fill="#E6E7E8"/>
<path d="M106.807 109.435H46.2969V104.229H106.807H106.82V109.435H106.807Z" fill="#E6E7E8"/>
</svg>
