<svg width="43" height="360" viewBox="0 0 43 360" fill="none" xmlns="http://www.w3.org/2000/svg">
<g filter="url(#filter0_b_13_594)">
<path fill-rule="evenodd" clip-rule="evenodd" d="M0.494141 19.9456C0.494141 12.964 0.494141 9.4732 1.85286 6.80657C3.04802 4.46093 4.95507 2.55388 7.30071 1.35872C9.96734 0 13.4582 0 20.4398 0H22.933C29.9146 0 33.4054 0 36.0721 1.35872C38.4177 2.55388 40.3247 4.46093 41.5199 6.80657C42.8786 9.4732 42.8786 12.964 42.8786 19.9456V339.076C42.8786 346.057 42.8786 349.548 41.5199 352.215C40.3247 354.561 38.4177 356.468 36.0721 357.663C33.4054 359.021 29.9146 359.021 22.933 359.021H20.4398C13.4581 359.021 9.96734 359.021 7.30071 357.663C4.95507 356.468 3.04802 354.561 1.85286 352.215C0.494141 349.548 0.494141 346.057 0.494141 339.076V19.9456Z" fill="black" fill-opacity="0.364909"/>
</g>
<path fill-rule="evenodd" clip-rule="evenodd" d="M21.5502 337.557C24.9175 337.557 27.6472 334.827 27.6472 331.46C27.6472 328.093 24.9175 325.363 21.5502 325.363C18.1829 325.363 15.4531 328.093 15.4531 331.46C15.4531 334.827 18.1829 337.557 21.5502 337.557ZM21.5502 338.804C25.6059 338.804 28.8938 335.516 28.8938 331.46C28.8938 327.404 25.6059 324.116 21.5502 324.116C17.4944 324.116 14.2065 327.404 14.2065 331.46C14.2065 335.516 17.4944 338.804 21.5502 338.804Z" fill="white"/>
<path fill-rule="evenodd" clip-rule="evenodd" d="M21.6409 326.565C24.3447 326.565 26.5366 328.757 26.5366 331.461C26.5366 334.165 24.3447 336.357 21.6409 336.357V326.565Z" fill="white"/>
<rect x="20.4399" y="54.8506" width="2.4932" height="249.32" rx="1.2466" fill="#D1D1D6"/>
<circle cx="21.6863" cy="289.212" r="14.9592" fill="white"/>
<path fill-rule="evenodd" clip-rule="evenodd" d="M21.6862 14.959C28.571 14.959 34.1523 20.5402 34.1523 27.425C34.1523 34.3098 28.571 39.891 21.6862 39.891C14.8014 39.891 9.22021 34.3098 9.22021 27.425C9.22021 20.5402 14.8014 14.959 21.6862 14.959ZM21.6863 16.2056C15.49 16.2056 10.4669 21.2287 10.4669 27.425C10.4669 33.6214 15.49 38.6445 21.6863 38.6445C27.8826 38.6445 32.9057 33.6214 32.9057 27.425C32.9057 21.2287 27.8826 16.2056 21.6863 16.2056ZM21.6863 18.6988H21.6864V36.1512L21.6863 36.1513C16.8669 36.1513 12.9601 32.2444 12.9601 27.425C12.9601 22.6057 16.8669 18.6988 21.6863 18.6988Z" fill="#1EA1F3"/>
<defs>
<filter id="filter0_b_13_594" x="-33.392" y="-33.8862" width="110.157" height="426.794" filterUnits="userSpaceOnUse" color-interpolation-filters="sRGB">
<feFlood flood-opacity="0" result="BackgroundImageFix"/>
<feGaussianBlur in="BackgroundImageFix" stdDeviation="16.9431"/>
<feComposite in2="SourceAlpha" operator="in" result="effect1_backgroundBlur_13_594"/>
<feBlend mode="normal" in="SourceGraphic" in2="effect1_backgroundBlur_13_594" result="shape"/>
</filter>
</defs>
</svg>
