<svg width="131" height="157" viewBox="0 0 131 157" fill="none" xmlns="http://www.w3.org/2000/svg">
<path d="M11.874 58.5002L25.0261 67.924L24.9614 57.0602L11.874 58.5002Z" fill="#BA1E2A"/>
<path d="M121.48 33.584V126.948C121.48 130.42 118.645 133.235 115.15 133.235H31.3701C27.875 133.235 25.04 130.42 25.04 126.948L25.04 7.03518C25.04 3.56391 27.875 0.748322 31.3701 0.748322L86.1146 0.748322L121.48 33.584Z" fill="white"/>
<path d="M73.2977 58.7829H13.0517C11.6018 58.7829 10.4238 57.613 10.4238 56.173L10.4238 29.7271C10.4238 28.2872 11.6018 27.1172 13.0517 27.1172L73.2977 27.1172C74.7475 27.1172 75.9255 28.2872 75.9255 29.7271V56.173C75.9255 57.613 74.7475 58.7829 73.2977 58.7829Z" fill="#ED1B24"/>
<path d="M21.3887 52.5596V34.1747H27.2139C28.2366 34.1747 29.1816 34.2647 30.0618 34.4575C30.9421 34.6504 31.6929 34.9589 32.3401 35.4089C32.9874 35.8589 33.4793 36.4503 33.8418 37.1703C34.2042 37.8902 34.3855 38.7902 34.3855 39.8573C34.3855 40.873 34.2042 41.7472 33.8418 42.5057C33.4793 43.2514 32.9874 43.8814 32.3531 44.3699C31.7188 44.8713 30.9809 45.2313 30.1136 45.4627C29.2592 45.6942 28.3272 45.8099 27.3304 45.8099H24.6638V52.5596H21.3887ZM24.6767 43.2H27.0845C29.8029 43.2 31.1621 42.0815 31.1621 39.8573C31.1621 38.7002 30.8126 37.8902 30.1007 37.4531C29.3887 37.016 28.3531 36.7974 26.968 36.7974H24.6767V43.2Z" fill="white"/>
<path d="M37.8672 52.5595V34.1746H42.8251C45.6601 34.1746 47.8607 34.9331 49.453 36.4502C51.0452 37.9673 51.8348 40.2429 51.8348 43.277C51.8348 44.7941 51.6277 46.1312 51.2264 47.3011C50.8251 48.4582 50.2297 49.4353 49.4659 50.2067C48.7022 50.991 47.7831 51.5695 46.6957 51.9681C45.6083 52.3666 44.3785 52.5595 43.0064 52.5595H37.8672V52.5595ZM41.1423 49.9239H42.5921C44.4821 49.9239 45.9319 49.3839 46.9416 48.304C47.9513 47.224 48.4562 45.5527 48.4562 43.2899C48.4562 41.04 47.9513 39.4072 46.9287 38.3658C45.906 37.3373 44.4691 36.823 42.5921 36.823H41.1423V49.9239Z" fill="white"/>
<path d="M55.5498 52.5598V34.175H66.7343V36.9263H58.8378V42.1332H65.5692V44.8845H58.8378V52.5598H55.5498Z" fill="white"/>
<path d="M121.48 33.584V34.5611H89.9716C87.5638 34.5611 85.6221 32.6198 85.6221 30.2285V0.748383H86.114L121.48 33.584Z" fill="#E6E7E8"/>
<path d="M103.642 74.2109H42.8652V69.004H103.642H103.655V74.2109H103.642Z" fill="#E6E7E8"/>
<path d="M103.642 86.2064H42.8652V80.9995H103.642H103.655V86.2064H103.642Z" fill="#E6E7E8"/>
<path d="M103.642 98.1885H42.8652V92.9944H103.642H103.655V98.1885H103.642Z" fill="#E6E7E8"/>
<path d="M103.642 110.184H42.8652V104.977H103.642H103.655V110.184H103.642Z" fill="#E6E7E8"/>
</svg>
