<svg width="129" height="154" viewBox="0 0 129 154" fill="none" xmlns="http://www.w3.org/2000/svg">
<path d="M4.87988 58.1614L17.9166 67.5852L17.8525 56.7214L4.87988 58.1614Z" fill="#005BB3"/>
<path d="M113.525 33.2448L113.525 126.609C113.525 130.08 110.715 132.896 107.25 132.896H24.2052C20.7408 132.896 17.9307 130.08 17.9307 126.609L17.9307 6.69604C17.9307 3.22477 20.7408 0.40918 24.2052 0.40918L78.4695 0.40918L113.525 33.2448Z" fill="white"/>
<path d="M65.7657 58.4445H6.04814C4.61102 58.4445 3.44336 57.2745 3.44336 55.8346L3.44336 29.3886C3.44336 27.9487 4.61102 26.7787 6.04814 26.7787L65.7657 26.7787C67.2028 26.7787 68.3705 27.9487 68.3705 29.3886V55.8346C68.3705 57.2745 67.2028 58.4445 65.7657 58.4445Z" fill="#0283FF"/>
<path d="M20.5611 52.2216V36.6008H15.2617V33.8367H29.1197V36.588H23.8203V52.2216H20.5611Z" fill="white"/>
<path d="M29.6582 52.2222L34.8806 42.7469L29.9918 33.8373H33.6103L35.6248 37.9128C35.8558 38.3499 36.0739 38.7871 36.2792 39.237C36.4974 39.687 36.7412 40.1884 37.0235 40.7284H37.1389C37.3699 40.1884 37.5752 39.687 37.7677 39.237C37.9602 38.7871 38.1655 38.3499 38.3708 37.9128L40.3083 33.8373H43.76L38.8712 42.8883L44.0936 52.2222H40.4751L38.2296 47.8895C37.9858 47.401 37.742 46.9253 37.511 46.4367C37.2801 45.961 37.0235 45.4339 36.7412 44.8811H36.6257C36.3819 45.4468 36.1509 45.961 35.9328 46.4367C35.7146 46.9124 35.4965 47.401 35.2784 47.8895L33.1099 52.2222H29.6582Z" fill="white"/>
<path d="M49.9449 52.2217V36.601H44.6455V33.8368H58.5035V36.5881H53.2041V52.2217H49.9449Z" fill="white"/>
<path d="M113.525 33.245V34.2221H82.2928C79.9062 34.2221 77.9814 32.2808 77.9814 29.8895V0.409363L78.469 0.409363L113.525 33.245Z" fill="#E6E7E8"/>
<path d="M95.8423 73.872L35.5986 73.872V68.6651L95.8423 68.6651H95.8551V73.872H95.8423Z" fill="#E6E7E8"/>
<path d="M95.8423 85.8673L35.5986 85.8673V80.6604L95.8423 80.6604H95.8551V85.8673H95.8423Z" fill="#E6E7E8"/>
<path d="M95.8433 97.8495L35.5996 97.8495V92.6555L95.8433 92.6555H95.8561V97.8495H95.8433Z" fill="#E6E7E8"/>
<path d="M95.8423 109.845L35.5986 109.845V104.638L95.8423 104.638H95.8551V109.845H95.8423Z" fill="#E6E7E8"/>
</svg>
